<svg width="19" height="21" viewBox="0 0 19 21" fill="none" xmlns="http://www.w3.org/2000/svg">
<path d="M3.03531 4.1499C7.67333 3.52014 10.6741 3.6537 12.7017 3.69797C14.9795 3.74771 16.0402 4.22787 16.8499 5.1499C18.3803 6.89269 18.022 12.638 16.233 14.237C14.445 15.836 6.68 15.988 4.22 14.237C1.621 12.386 3.129 6.692 3.044 3.243C3.095 1.313 1 1 1 1" stroke="black" stroke-opacity="0.7" stroke-width="1.5" stroke-linecap="round" stroke-linejoin="round"/>
<path d="M11.5059 8.8696H14.2789" stroke="black" stroke-opacity="0.7" stroke-width="1.5" stroke-linecap="round" stroke-linejoin="round"/>
<path fill-rule="evenodd" clip-rule="evenodd" d="M4.61379 18.2773C4.91379 18.2773 5.15779 18.5213 5.15779 18.8213C5.15779 19.1223 4.91379 19.3663 4.61379 19.3663C4.31279 19.3663 4.06879 19.1223 4.06879 18.8213C4.06879 18.5213 4.31279 18.2773 4.61379 18.2773Z" fill="black" fill-opacity="0.7" stroke="black" stroke-opacity="0.7" stroke-width="1.5" stroke-linecap="round" stroke-linejoin="round"/>
<path fill-rule="evenodd" clip-rule="evenodd" d="M14.9453 18.2773C15.2463 18.2773 15.4903 18.5213 15.4903 18.8213C15.4903 19.1223 15.2463 19.3663 14.9453 19.3663C14.6453 19.3663 14.4013 19.1223 14.4013 18.8213C14.4013 18.5213 14.6453 18.2773 14.9453 18.2773Z" fill="black" fill-opacity="0.7" stroke="black" stroke-opacity="0.7" stroke-width="1.5" stroke-linecap="round" stroke-linejoin="round"/>
</svg>
