<svg width="17" height="16" viewBox="0 0 17 16" fill="none" xmlns="http://www.w3.org/2000/svg">
<path d="M14.8877 3.03667C14.9546 2.93627 14.9931 2.81956 14.999 2.69901C15.0048 2.57846 14.9778 2.45858 14.9209 2.35216C14.864 2.24574 14.7792 2.15677 14.6757 2.09475C14.5721 2.03273 14.4537 1.99998 14.333 2H3.66632C3.54573 2.00006 3.42742 2.03283 3.32398 2.09482C3.22054 2.15681 3.13585 2.24569 3.07893 2.352C3.02202 2.45831 2.995 2.57807 3.00076 2.69852C3.00652 2.81897 3.04485 2.93561 3.11166 3.036L8.33299 10.8687V13.3333H6.33299V14.6667H11.6663V13.3333H9.66632V10.8687L14.8877 3.03667ZM13.0877 3.33333L11.7543 5.33333H6.24499L4.91166 3.33333H13.0877Z" fill="#4F4F4F"/>
</svg>
