<svg width="18" height="18" viewBox="0 0 18 18" fill="none" xmlns="http://www.w3.org/2000/svg">
<path d="M7.47289 14.2118H1.00037" stroke="#4F4F4F" stroke-width="1.5" stroke-linecap="round" stroke-linejoin="round"/>
<path fill-rule="evenodd" clip-rule="evenodd" d="M11.5342 14.2127C11.5342 16.2545 12.2151 16.9345 14.256 16.9345C16.2969 16.9345 16.9778 16.2545 16.9778 14.2127C16.9778 12.1709 16.2969 11.4909 14.256 11.4909C12.2151 11.4909 11.5342 12.1709 11.5342 14.2127Z" stroke="#4F4F4F" stroke-width="1.5" stroke-linecap="round" stroke-linejoin="round"/>
<path d="M10.5058 3.72313H16.9774" stroke="#4F4F4F" stroke-width="1.5" stroke-linecap="round" stroke-linejoin="round"/>
<path fill-rule="evenodd" clip-rule="evenodd" d="M6.44447 3.72179C6.44447 1.68089 5.76358 1 3.72268 1C1.68089 1 1 1.68089 1 3.72179C1 5.76358 1.68089 6.44358 3.72268 6.44358C5.76358 6.44358 6.44447 5.76358 6.44447 3.72179Z" stroke="#4F4F4F" stroke-width="1.5" stroke-linecap="round" stroke-linejoin="round"/>
</svg>
