<svg width="40" height="40" viewBox="0 0 40 40" fill="none" xmlns="http://www.w3.org/2000/svg">
<path d="M14.6875 8.1875C15.625 5.75 22.3125 1.25 22.3125 1.25C22.3125 1.25 24.4375 9.3125 23.5625 11.6875C22.6875 14.125 20 15.25 17.5625 14.3125C15.0625 13.3125 13.8125 10.5625 14.6875 8.1875Z" fill="#8CC63E"/>
<path d="M10.75 13C9.625 10.6875 11.25 2.6875 11.25 2.6875C11.25 2.6875 18.375 6.875 19.4375 9.25C20.5 11.5625 19.4375 14.3125 17 15.375C14.625 16.375 11.8125 15.3125 10.75 13Z" fill="#64892F"/>
<path d="M12.9375 10.75C10.625 9.6875 2.6875 11.25 2.6875 11.25C2.6875 11.25 6.875 18.4375 9.1875 19.5625C11.5 20.625 14.25 19.5625 15.25 17.125C16.3125 14.6875 15.25 11.8125 12.9375 10.75Z" fill="#8CC63E"/>
<path d="M8.125 14.75C5.75 15.6875 1.25 22.4375 1.25 22.4375C1.25 22.4375 9.25 24.5625 11.6875 23.6875C14.0625 22.8125 15.25 20.0625 14.25 17.625C13.25 15.125 10.5625 13.875 8.125 14.75Z" fill="#64892F"/>
<path d="M32.1875 10.4375C39.375 17.6875 40.1875 33.375 36.8125 36.8125C33.375 40.25 17.8125 39.375 10.5625 32.125C5.25 26.8125 7.75 18.75 13.25 13.1875C18.8125 7.625 26.875 5.125 32.1875 10.4375Z" fill="#EF4D3C"/>
<path d="M25.4375 9.8125C25.125 9.8125 24.8125 9.9375 24.625 10.1875C24.3125 10.6875 24.5625 11.4375 25.3125 11.9375C25.6875 12.1875 26.0625 12.3125 26.375 12.3125C26.6875 12.3125 27 12.1875 27.125 11.9375C27.4375 11.4375 27.1875 10.6875 26.4375 10.1875C26.1875 9.9375 25.8125 9.8125 25.4375 9.8125Z" fill="#FFF0F0"/>
<path d="M27.75 20.75C27.5625 20.75 27.375 20.8125 27.1875 20.9375C26.75 21.3125 26.875 22.125 27.375 22.8125C27.75 23.25 28.25 23.5 28.625 23.5C28.8125 23.5 29 23.4375 29.1875 23.3125C29.625 22.9375 29.5 22.125 29 21.4375C28.625 21 28.125 20.75 27.75 20.75Z" fill="#FFF0F0"/>
<path d="M22.375 15.375C22.1875 15.375 22 15.4375 21.8125 15.5625C21.375 15.9375 21.4375 16.75 22 17.4375C22.375 17.875 22.875 18.125 23.25 18.125C23.4375 18.125 23.625 18.0625 23.8125 17.9375C24.25 17.5625 24.1875 16.75 23.625 16.0625C23.25 15.625 22.75 15.375 22.375 15.375Z" fill="#FFF0F0"/>
<path d="M31.5625 16C31.4375 16 31.3125 16 31.1875 16.0625C30.6875 16.3125 30.625 17.1875 31 17.9375C31.3125 18.5 31.8125 18.875 32.3125 18.875C32.4375 18.875 32.5625 18.875 32.6875 18.8125C33.1875 18.5625 33.25 17.6875 32.875 16.9375C32.5625 16.375 32 16 31.5625 16Z" fill="#FFF0F0"/>
<path d="M34.4375 24.25H34.25C33.6875 24.375 33.375 25.1875 33.625 26C33.8125 26.75 34.3125 27.25 34.875 27.25H35.0625C35.625 27.125 35.9375 26.3125 35.6875 25.5C35.4375 24.75 34.9375 24.25 34.4375 24.25Z" fill="#FFF0F0"/>
<path d="M33.6875 32C33.5 32 33.25 32.0625 33.125 32.1875C32.6875 32.5625 32.8125 33.4375 33.375 34.0625C33.75 34.5 34.25 34.6875 34.625 34.6875C34.8125 34.6875 35.0625 34.625 35.1875 34.5C35.625 34.125 35.5 33.25 34.9375 32.625C34.5625 32.25 34.125 32 33.6875 32Z" fill="#FFF0F0"/>
<path d="M19.8125 31.0625C19.5 31.0625 19.1875 31.1875 19 31.4375C18.6875 31.9375 19 32.6875 19.6875 33.1875C20.0625 33.4375 20.4375 33.5625 20.75 33.5625C21.0625 33.5625 21.375 33.4375 21.5625 33.1875C21.875 32.6875 21.5625 31.9375 20.875 31.4375C20.5625 31.1875 20.1875 31.0625 19.8125 31.0625Z" fill="#FFF0F0"/>
<path d="M12.625 29C12.25 29 12 29.125 11.8125 29.375C11.5 29.875 11.8125 30.625 12.5 31.125C12.875 31.375 13.25 31.5 13.5625 31.5C13.875 31.5 14.1875 31.375 14.375 31.125C14.6875 30.625 14.375 29.875 13.6875 29.375C13.3125 29.125 12.9375 29 12.625 29Z" fill="#FFF0F0"/>
<path d="M26 34.0625C25.5 34.0625 25.125 34.25 24.9375 34.625C24.75 35.1875 25.1875 35.875 26 36.1875C26.25 36.3125 26.5625 36.375 26.8125 36.375C27.3125 36.375 27.6875 36.1875 27.875 35.8125C28.0625 35.25 27.625 34.5625 26.8125 34.25C26.5625 34.125 26.25 34.0625 26 34.0625Z" fill="#FFF0F0"/>
<path d="M27.4375 27.8125C27.0625 27.8125 26.75 27.9375 26.5625 28.25C26.25 28.75 26.625 29.5 27.375 29.9375C27.6875 30.125 28.0625 30.25 28.375 30.25C28.75 30.25 29.0625 30.125 29.25 29.8125C29.5625 29.3125 29.1875 28.5625 28.4375 28.125C28.0625 27.9375 27.75 27.8125 27.4375 27.8125Z" fill="#FFF0F0"/>
<path d="M20.75 23.375C20.4375 23.375 20.1875 23.5 20.0625 23.6875C19.6875 24.125 19.9375 24.9375 20.5625 25.5C20.9375 25.8125 21.375 25.9375 21.75 25.9375C22.0625 25.9375 22.3125 25.8125 22.4375 25.625C22.8125 25.1875 22.5625 24.375 21.9375 23.8125C21.5625 23.5625 21.125 23.375 20.75 23.375Z" fill="#FFF0F0"/>
<path d="M15.3125 14.9375C15.0625 14.9375 14.875 15 14.6875 15.1875C14.25 15.625 14.4375 16.4375 15 17C15.375 17.375 15.8125 17.5625 16.25 17.5625C16.5 17.5625 16.6875 17.5 16.875 17.3125C17.3125 16.875 17.125 16.0625 16.5625 15.5C16.1875 15.125 15.75 14.9375 15.3125 14.9375Z" fill="#FFF0F0"/>
<path d="M13.5625 21.6875C13.25 21.6875 13 21.8125 12.8125 22C12.4375 22.4375 12.6875 23.25 13.375 23.8125C13.75 24.125 14.1875 24.25 14.5 24.25C14.8125 24.25 15.0625 24.125 15.25 23.9375C15.625 23.5 15.375 22.6875 14.6875 22.125C14.3125 21.875 13.875 21.6875 13.5625 21.6875Z" fill="#FFF0F0"/>
</svg>
