<svg width="45" height="45" viewBox="0 0 45 45" fill="none" xmlns="http://www.w3.org/2000/svg">
<path d="M22.5 24.0019C23.3295 24.0019 24.0019 23.3295 24.0019 22.5C24.0019 21.6705 23.3295 20.9981 22.5 20.9981C21.6705 20.9981 20.9981 21.6705 20.9981 22.5C20.9981 23.3295 21.6705 24.0019 22.5 24.0019Z" fill="black" stroke="black" stroke-width="0.5" stroke-miterlimit="10" stroke-linejoin="round"/>
<path d="M17.7875 11.1687L27.2062 33.9125" stroke="black" stroke-width="0.5" stroke-linejoin="round"/>
<path d="M11.0812 27.2125L33.8125 17.7937" stroke="black" stroke-width="0.5" stroke-linejoin="round"/>
<path d="M11.0938 17.775L33.7875 27.175" stroke="black" stroke-width="0.5" stroke-linejoin="round"/>
<path d="M27.1437 11.225L17.7875 33.8063" stroke="black" stroke-width="0.5" stroke-linejoin="round"/>
<path d="M22.3 23.75C22.9904 23.75 23.55 23.1904 23.55 22.5C23.55 21.8096 22.9904 21.25 22.3 21.25C21.6096 21.25 21.05 21.8096 21.05 22.5C21.05 23.1904 21.6096 23.75 22.3 23.75Z" fill="#FFA7C0"/>
<path d="M22.5 38.75C31.4746 38.75 38.75 31.4746 38.75 22.5C38.75 13.5254 31.4746 6.25 22.5 6.25C13.5254 6.25 6.25 13.5254 6.25 22.5C6.25 31.4746 13.5254 38.75 22.5 38.75Z" fill="#E27022"/>
<path d="M22.5 34.7687C29.2758 34.7687 34.7687 29.2758 34.7687 22.5C34.7687 15.7242 29.2758 10.2312 22.5 10.2312C15.7242 10.2312 10.2312 15.7242 10.2312 22.5C10.2312 29.2758 15.7242 34.7687 22.5 34.7687Z" fill="#F1B31C"/>
<path d="M17.7875 11.1687L27.2062 33.9125" stroke="#E27022" stroke-width="0.5" stroke-linejoin="round"/>
<path d="M27.1437 11.225L17.7875 33.8063" stroke="#E27022" stroke-width="0.5" stroke-linejoin="round"/>
<path d="M11.0812 27.2125L33.8125 17.7937" stroke="#E27022" stroke-width="0.5" stroke-linejoin="round"/>
<path d="M11.0938 17.775L33.7875 27.175" stroke="#E27022" stroke-width="0.5" stroke-linejoin="round"/>
<path d="M22.5 24.0019C23.3295 24.0019 24.0019 23.3295 24.0019 22.5C24.0019 21.6705 23.3295 20.9981 22.5 20.9981C21.6705 20.9981 20.9981 21.6705 20.9981 22.5C20.9981 23.3295 21.6705 24.0019 22.5 24.0019Z" fill="#E27022" stroke="#E27022" stroke-width="0.5" stroke-miterlimit="10" stroke-linejoin="round"/>
<path d="M38.75 22.5C38.75 26.8098 37.0379 30.943 33.9905 33.9905C30.943 37.038 26.8098 38.75 22.5 38.75C18.1902 38.75 14.057 37.038 11.0095 33.9905C7.96205 30.943 6.25 26.8098 6.25 22.5C6.25 18.1902 7.96205 14.057 11.0095 11.0095C14.057 7.96205 18.1902 6.25 22.5 6.25C26.8098 6.25 30.943 7.96205 33.9905 11.0095C37.0379 14.057 38.75 18.1902 38.75 22.5" stroke="black" stroke-width="0.5" stroke-miterlimit="10"/>
<path d="M34.7687 22.5C34.7687 24.1112 34.4514 25.7065 33.8348 27.195C33.2183 28.6836 32.3146 30.0361 31.1753 31.1753C30.0361 32.3146 28.6836 33.2183 27.195 33.8348C25.7065 34.4514 24.1112 34.7687 22.5 34.7687C19.2461 34.7687 16.1255 33.4761 13.8247 31.1753C11.5238 28.8745 10.2312 25.7539 10.2312 22.5C10.2312 19.2461 11.5238 16.1255 13.8247 13.8247C16.1255 11.5238 19.2461 10.2312 22.5 10.2312C24.1112 10.2312 25.7065 10.5486 27.195 11.1651C28.6836 11.7817 30.0361 12.6854 31.1753 13.8247C32.3146 14.9639 33.2183 16.3164 33.8348 17.8049C34.4514 19.2935 34.7687 20.8888 34.7687 22.5" stroke="black" stroke-width="0.5" stroke-miterlimit="10"/>
</svg>
