<svg width="40" height="40" viewBox="0 0 40 40" fill="none" xmlns="http://www.w3.org/2000/svg">
<path d="M23.5625 38.75C-6.12499 38.75 -6.12499 1.25 23.5625 1.25V38.75Z" fill="#9E7658"/>
<path d="M23.5625 38.75C31.9503 38.75 38.75 30.3553 38.75 20C38.75 9.64466 31.9503 1.25 23.5625 1.25C15.1747 1.25 8.375 9.64466 8.375 20C8.375 30.3553 15.1747 38.75 23.5625 38.75Z" fill="#89664C"/>
<path d="M23.5625 37.6875C31.4671 37.6875 37.875 29.7685 37.875 20C37.875 10.2315 31.4671 2.3125 23.5625 2.3125C15.6579 2.3125 9.24999 10.2315 9.24999 20C9.24999 29.7685 15.6579 37.6875 23.5625 37.6875Z" fill="#B2D921"/>
<path d="M23.5625 35.4375C30.4661 35.4375 36.0625 28.5259 36.0625 20C36.0625 11.4741 30.4661 4.5625 23.5625 4.5625C16.6589 4.5625 11.0625 11.4741 11.0625 20C11.0625 28.5259 16.6589 35.4375 23.5625 35.4375Z" fill="#C7E755"/>
<path d="M33.375 23.3125C33.1875 24.1875 29.5 23.3125 29.1875 24.0625C28.8125 24.875 31.25 28.3125 30.75 28.9375C30.25 29.5625 27.4375 26.5625 26.8125 27C26.1875 27.4375 26.875 31.9375 26.1875 32.1875C25.5 32.4375 24.3125 28.0625 23.5625 28.0625C22.875 28.0625 21.625 32.375 20.9375 32.125C20.1875 31.875 20.9375 27.375 20.3125 26.9375C19.6875 26.5 16.875 29.5 16.375 28.875C15.875 28.25 18.3125 24.8125 17.9375 24C17.5625 23.25 13.9375 24.0625 13.75 23.25C13.5625 22.375 17.0625 20.9375 17.0625 20C17.0625 19.125 13.5625 17.625 13.75 16.75C13.9375 15.875 17.625 16.75 17.9375 16C18.3125 15.1875 15.875 11.75 16.375 11.125C16.875 10.5 19.6875 13.5 20.3125 13.0625C20.9375 12.625 20.25 8.12501 20.9375 7.87501C21.625 7.62501 22.8125 12 23.5625 12C24.25 12 25.5 7.68751 26.1875 7.87501C26.9375 8.12501 26.1875 12.625 26.8125 13.0625C27.4375 13.5 30.25 10.5 30.75 11.125C31.25 11.75 28.8125 15.1875 29.1875 16C29.5625 16.75 33.1875 15.9375 33.375 16.75C33.5625 17.625 30.0625 19.0625 30.0625 20C30.0625 20.9375 33.5625 22.4375 33.375 23.3125Z" fill="#B2D921"/>
<path d="M31.875 20L26.8125 21.0625L30.75 25.125L25.9375 22.9375L27.6875 28.875L24.4375 24.0625L23.5625 30.25L22.625 24.0625L19.375 28.875L21.125 22.9375L16.3125 25.125L20.25 21.0625L15.1875 20L20.25 18.9375L16.3125 14.875L21.125 17.0625L19.375 11.125L22.625 15.9375L23.5625 9.74998L24.4375 15.9375L27.6875 11.125L25.9375 17.0625L30.75 14.875L26.8125 18.9375L31.875 20Z" fill="#ECFFAD"/>
<path d="M21.8125 10.875L21.5625 12.375L22.375 13.5625L22.625 12.0625L21.8125 10.875Z" fill="#3E4347"/>
<path d="M20.25 8.75L19.9375 10.25L20.75 11.4375L21.0625 9.9375L20.25 8.75Z" fill="#3E4347"/>
<path d="M25.875 10.5625L24.8125 11.375L24.6875 12.9375L25.75 12.0625L25.875 10.5625Z" fill="#3E4347"/>
<path d="M25.25 29.125L25.5625 27.625L24.6875 26.4375L24.4375 27.9375L25.25 29.125Z" fill="#3E4347"/>
<path d="M26.875 31.25L27.125 29.75L26.3125 28.5625L26 30.0625L26.875 31.25Z" fill="#3E4347"/>
<path d="M21.1875 29.4375L22.25 28.625L22.375 27.0625L21.3125 27.9375L21.1875 29.4375Z" fill="#3E4347"/>
<path d="M30.9375 17.875L29.75 17.5625L28.75 18.5625L30 18.875L30.9375 17.875Z" fill="#3E4347"/>
<path d="M32.6875 15.9375L31.4375 15.5625L30.5 16.5625L31.6875 16.9375L32.6875 15.9375Z" fill="#3E4347"/>
<path d="M31.1875 22.875L30.5625 21.5625L29.3125 21.4375L29.9375 22.75L31.1875 22.875Z" fill="#3E4347"/>
<path d="M16.125 22.125L17.375 22.4375L18.3125 21.4375L17.0625 21.125L16.125 22.125Z" fill="#3E4347"/>
<path d="M14.4375 24.0625L15.625 24.4375L16.5625 23.4375L15.375 23.0625L14.4375 24.0625Z" fill="#3E4347"/>
<path d="M15.875 17.125L16.5 18.4375L17.75 18.5625L17.125 17.25L15.875 17.125Z" fill="#3E4347"/>
<path d="M29.5 14.125L28.25 14.5L27.75 15.875L28.9375 15.5625L29.5 14.125Z" fill="#3E4347"/>
<path d="M30.3125 11.4375L29.125 11.8125L28.625 13.25L29.8125 12.875L30.3125 11.4375Z" fill="#3E4347"/>
<path d="M16.75 28.5625L17.9375 28.1875L18.5 26.75L17.25 27.125L16.75 28.5625Z" fill="#3E4347"/>
<path d="M18.75 12.6875L19.0625 14.1875L20.1875 14.8125L19.9375 13.3125L18.75 12.6875Z" fill="#3E4347"/>
<path d="M16.625 11.625L16.875 13.125L18.0625 13.75L17.75 12.25L16.625 11.625Z" fill="#3E4347"/>
<path d="M30.4375 28.375L30.1875 26.875L29.0625 26.25L29.3125 27.75L30.4375 28.375Z" fill="#3E4347"/>
</svg>
