<svg width="45" height="45" viewBox="0 0 45 45" fill="none" xmlns="http://www.w3.org/2000/svg">
<path d="M7.25688 22.3987C7.25688 26.6675 10.0331 32.5675 13.39 35.7906C14.8781 37.2219 16.4813 38.125 18.0081 38.125C18.9409 38.1229 19.8686 37.9865 20.7625 37.72C21.8954 37.3766 23.1046 37.3766 24.2375 37.72C25.1314 37.9865 26.0591 38.1229 26.9919 38.125C28.5913 38.125 30.2756 37.1331 31.8244 35.5812C35.0838 32.3169 37.7431 26.5762 37.7431 22.3987C37.7431 16.2356 34.0556 12.5119 30.5894 11.6131C28.8799 11.2765 27.114 11.363 25.4456 11.865C23.8417 12.2836 22.167 12.3554 20.5331 12.0756C20.2048 12.019 19.8788 11.9487 19.555 11.865C17.8866 11.363 16.1207 11.2765 14.4113 11.6131C10.9444 12.5119 7.25688 16.2356 7.25688 22.3987Z" fill="#EA5A47"/>
<path d="M13.39 35.79C16.5864 36.4425 19.8834 36.4247 23.0725 35.7375C24.98 35.2705 26.6998 34.2331 28.0025 32.7635C29.3052 31.294 30.1289 29.4622 30.3637 27.5125C31.5762 17.5269 25.0512 14.6187 25.0512 14.6187C23.7632 15.1377 22.3539 15.2784 20.9887 15.0244C22.3612 13.6531 20.5337 12.075 20.5337 12.075C22.1674 12.3546 23.8419 12.2828 25.4456 11.8644C27.1141 11.3626 28.8799 11.2763 30.5894 11.6131C34.0562 12.5119 37.7431 16.2356 37.7431 22.3987C37.7431 28.5619 31.9562 38.125 26.9919 38.125C26.059 38.1229 25.1314 37.9865 24.2375 37.72C23.1046 37.3766 21.8954 37.3766 20.7625 37.72C19.8686 37.9865 18.9409 38.1229 18.0081 38.125C16.4819 38.125 14.8781 37.2219 13.3894 35.7906L13.39 35.79Z" fill="#D22F27"/>
<path d="M18.7456 14.1794C18.7456 14.8806 19.8462 15.4644 21.3081 15.5969C21.7358 15.6352 22.1661 15.6346 22.5937 15.595C24.0412 15.4575 25.1287 14.8763 25.1287 14.1794H18.7456Z" fill="#D22F27"/>
<path d="M20.7175 11.9869C19.0006 13.8806 13.8825 13.8044 12.2925 7.76C13.2466 7.89649 14.2197 7.74023 15.0831 7.31188C17.51 6.06 21.4225 7.5475 22.3544 11.1606C21.7287 11.2355 21.1493 11.528 20.7175 11.9869Z" fill="#B1CC33"/>
<path d="M14.4112 11.6125C10.9437 12.5125 7.25624 16.2363 7.25624 22.3994C7.25624 26.6681 10.0325 32.5681 13.3894 35.7913C14.8781 37.2219 16.4812 38.125 18.0081 38.125C18.9409 38.1229 19.8686 37.9865 20.7625 37.72C21.8954 37.3766 23.1046 37.3766 24.2375 37.72C25.1314 37.9866 26.0591 38.123 26.9919 38.125C28.5912 38.125 30.2756 37.1331 31.8244 35.5813C35.0837 32.3169 37.7431 26.5763 37.7431 22.3988C37.7431 16.2356 34.0556 12.5119 30.5894 11.6131C28.8799 11.2765 27.114 11.363 25.4456 11.865C23.8417 12.2836 22.167 12.3554 20.5331 12.0756L20.4325 12.0569" stroke="black" stroke-width="0.4495" stroke-miterlimit="10"/>
<path d="M14.4112 11.6125C10.9437 12.5125 7.25624 16.2363 7.25624 22.3994C7.25624 26.6681 10.0325 32.5681 13.3894 35.7913C14.8781 37.2219 16.4812 38.125 18.0081 38.125C18.9409 38.1229 19.8686 37.9865 20.7625 37.72C21.8954 37.3766 23.1046 37.3766 24.2375 37.72C25.1314 37.9866 26.0591 38.123 26.9919 38.125C28.5912 38.125 30.2756 37.1331 31.8244 35.5813C35.0837 32.3169 37.7431 26.5763 37.7431 22.3988C37.7431 16.2356 34.0556 12.5119 30.5894 11.6131C28.8799 11.2765 27.114 11.363 25.4456 11.865C23.8417 12.2836 22.167 12.3554 20.5331 12.0756" stroke="black" stroke-width="0.4495" stroke-miterlimit="10"/>
<path d="M21.8437 11.8163C21.6538 12.5945 21.5118 13.3837 21.4187 14.1794C21.3629 14.6502 21.326 15.1231 21.3081 15.5969C21.7358 15.6352 22.1661 15.6346 22.5937 15.595C22.6125 15.1094 22.6544 14.6369 22.7119 14.1794C22.9658 12.1657 23.5456 10.2068 24.4287 8.37938C24.4993 8.23 24.5097 8.05916 24.4576 7.90236C24.4055 7.74556 24.295 7.61485 24.1491 7.53738C24.0032 7.45991 23.833 7.44164 23.6739 7.48635C23.5149 7.53107 23.3792 7.63534 23.295 7.7775C22.905 8.55477 22.5755 9.3609 22.3094 10.1888" fill="black"/>
<path d="M11.875 7.76C12.8667 7.8964 13.8767 7.74067 14.7812 7.31188C17.3087 6.06 21.3837 7.5475 22.3544 11.1606C21.7087 11.2337 21.1073 11.5252 20.65 11.9869C18.8612 13.8806 13.5312 13.8044 11.875 7.76V7.76Z" stroke="black" stroke-width="0.3885" stroke-miterlimit="10"/>
</svg>
