<svg width="7" height="7" viewBox="0 0 7 7" fill="none" xmlns="http://www.w3.org/2000/svg">
<path fill-rule="evenodd" clip-rule="evenodd" d="M3.5 0C2.70816 0 2.6333 1.3792 2.16188 1.8665C1.69046 2.3538 0.224855 1.79663 0.0212282 2.66157C-0.181971 3.52694 1.13647 3.82056 1.29903 4.563C1.46244 5.30544 0.656921 6.34858 1.34523 6.86772C2.03354 7.38641 2.77447 6.21238 3.5 6.21238C4.22552 6.21238 4.96645 7.38641 5.65476 6.86772C6.34307 6.34858 5.53798 5.30544 5.70096 4.563C5.86395 3.82056 7.18197 3.52694 6.97877 2.66157C6.77557 1.79663 5.30954 2.3538 4.83854 1.8665C4.36712 1.3792 4.29183 0 3.5 0Z" fill="#F2994A"/>
</svg>
