<svg width="16" height="16" viewBox="0 0 16 16" fill="none" xmlns="http://www.w3.org/2000/svg">
<path d="M10.3333 7.33333L10.2 8H8.66667C8.57826 8 8.49348 8.03512 8.43096 8.09763C8.36845 8.16014 8.33333 8.24493 8.33333 8.33333C8.33333 8.42174 8.36845 8.50652 8.43096 8.56904C8.49348 8.63155 8.57826 8.66667 8.66667 8.66667H10.0667L9.4 12H8C7.91159 12 7.82681 12.0351 7.7643 12.0976C7.70179 12.1601 7.66667 12.2449 7.66667 12.3333C7.66667 12.4217 7.70179 12.5065 7.7643 12.569C7.82681 12.6315 7.91159 12.6667 8 12.6667H9.26667L9 14C9 14.3536 8.85952 14.6928 8.60948 14.9428C8.35943 15.1929 8.02029 15.3333 7.66667 15.3333C7.31304 15.3333 6.97391 15.1929 6.72386 14.9428C6.47381 14.6928 6.33333 14.3536 6.33333 14L5.66667 10.6667H6.66667C6.75507 10.6667 6.83986 10.6315 6.90237 10.569C6.96488 10.5065 7 10.4217 7 10.3333C7 10.2449 6.96488 10.1601 6.90237 10.0976C6.83986 10.0351 6.75507 10 6.66667 10H5.53333L5 7.33333C5 6.53333 5.62 5.84667 6.52667 5.52667L5.6 4.18667C5.55028 4.11453 5.51532 4.03327 5.49712 3.94756C5.47892 3.86186 5.47784 3.77341 5.49395 3.68729C5.51006 3.60117 5.54304 3.51908 5.59098 3.44575C5.63893 3.37242 5.7009 3.30929 5.77333 3.26C5.8451 3.21004 5.92602 3.17472 6.01145 3.15606C6.09688 3.1374 6.18515 3.13576 6.27122 3.15124C6.35728 3.16672 6.43945 3.19901 6.51302 3.24627C6.5866 3.29353 6.65014 3.35483 6.7 3.42667L7 3.86667V2.66667C7 2.48986 7.07024 2.32029 7.19526 2.19526C7.32029 2.07024 7.48986 2 7.66667 2C7.84348 2 8.01305 2.07024 8.13807 2.19526C8.2631 2.32029 8.33333 2.48986 8.33333 2.66667V4.18667L9.33333 3.02667C9.55333 2.74667 9.98 2.71333 10.26 2.95333C10.54 3.18667 10.5733 3.60667 10.3333 3.89333L8.91333 5.56667C9.76 5.9 10.3333 6.56667 10.3333 7.33333Z" fill="#4F4F4F"/>
</svg>
